<svg xmlns="http://www.w3.org/2000/svg" viewBox="0 0 160 160" width="100%" height="100%" fill="none">
  <!-- Soft organic hand-drawn luxury botanical leaf branch curving inwards from top-right -->
  <path d="M150,10 C115,25 85,55 70,95 C62,115 58,135 55,150" stroke="#C89B5D" stroke-width="1.2" stroke-linecap="round" opacity="0.35" />
  
  <!-- Leaf 1 (Top Right corner) -->
  <path d="M145,12 C150,25 138,35 130,25 C126,20 132,12 145,12 Z" fill="#C89B5D" opacity="0.25" />
  <path d="M145,12 Q135,22 130,25" stroke="#C89B5D" stroke-width="0.8" opacity="0.4" />

  <!-- Leaf 2 -->
  <path d="M124,25 C130,40 115,48 108,38 C104,32 112,25 124,25 Z" fill="#C89B5D" opacity="0.25" />
  <path d="M124,25 Q115,36 108,38" stroke="#C89B5D" stroke-width="0.8" opacity="0.4" />

  <!-- Leaf 3 -->
  <path d="M102,45 C108,60 92,68 84,56 C80,48 90,42 102,45 Z" fill="#C89B5D" opacity="0.25" />
  <path d="M102,45 Q92,56 84,56" stroke="#C89B5D" stroke-width="0.8" opacity="0.4" />

  <!-- Leaf 4 (Inner) -->
  <path d="M82,72 C86,90 68,96 62,82 C58,74 70,68 82,72 Z" fill="#C89B5D" opacity="0.25" />
  <path d="M82,72 Q72,84 62,82" stroke="#C89B5D" stroke-width="0.8" opacity="0.4" />

  <!-- Side shoots -->
  <path d="M130,25 C118,20 110,12 105,2" stroke="#C89B5D" stroke-width="0.8" stroke-linecap="round" opacity="0.25" />
  <path d="M118,20 C122,12 118,2 115,0" fill="#C89B5D" opacity="0.15" />
  <path d="M106,42 C90,36 78,24 72,10" stroke="#C89B5D" stroke-width="0.8" stroke-linecap="round" opacity="0.25" />
</svg>
