<svg xmlns="http://www.w3.org/2000/svg" viewBox="0 0 160 160" width="100%" height="100%" fill="none">
  <!-- Soft organic hand-drawn luxury botanical leaf branch curving inwards from top-left -->
  <path d="M10,10 C45,25 75,55 90,95 C98,115 102,135 105,150" stroke="#C89B5D" stroke-width="1.2" stroke-linecap="round" opacity="0.35" />
  
  <!-- Leaf 1 (Top Left corner) -->
  <path d="M15,12 C10,25 22,35 30,25 C34,20 28,12 15,12 Z" fill="#C89B5D" opacity="0.25" />
  <path d="M15,12 Q25,22 30,25" stroke="#C89B5D" stroke-width="0.8" opacity="0.4" />

  <!-- Leaf 2 -->
  <path d="M36,25 C30,40 45,48 52,38 C56,32 48,25 36,25 Z" fill="#C89B5D" opacity="0.25" />
  <path d="M36,25 Q45,36 52,38" stroke="#C89B5D" stroke-width="0.8" opacity="0.4" />

  <!-- Leaf 3 -->
  <path d="M58,45 C52,60 68,68 76,56 C80,48 70,42 58,45 Z" fill="#C89B5D" opacity="0.25" />
  <path d="M58,45 Q68,56 76,56" stroke="#C89B5D" stroke-width="0.8" opacity="0.4" />

  <!-- Leaf 4 (Inner) -->
  <path d="M78,72 C74,90 92,96 98,82 C102,74 90,68 78,72 Z" fill="#C89B5D" opacity="0.25" />
  <path d="M78,72 Q88,84 98,82" stroke="#C89B5D" stroke-width="0.8" opacity="0.4" />

  <!-- Side shoots -->
  <path d="M30,25 C42,20 50,12 55,2" stroke="#C89B5D" stroke-width="0.8" stroke-linecap="round" opacity="0.25" />
  <path d="M42,20 C38,12 42,2 45,0" fill="#C89B5D" opacity="0.15" />
  <path d="M54,42 C70,36 82,24 88,10" stroke="#C89B5D" stroke-width="0.8" stroke-linecap="round" opacity="0.25" />
</svg>
